<?xml version="1.0" encoding="UTF-8"?> <svg xmlns="http://www.w3.org/2000/svg" width="746" height="4" viewBox="0 0 746 4" fill="none"> <path d="M2 0L3.57628e-07 -2.38419e-07L-2.38419e-07 4L2 4L2 0ZM743.842 4.00013L745.842 4.00013V0.000131726L743.842 0.000131369V4.00013ZM5.31179 4L7.31179 4L7.31179 9.53674e-07L5.31179 5.96046e-07L5.31179 4ZM25.1826 4.05312e-06L23.1826 3.69549e-06V4L25.1826 4V4.05312e-06ZM31.8061 4.00001L33.8061 4.00001L33.8061 5.60284e-06L31.8061 5.24521e-06L31.8061 4.00001ZM51.6769 8.82149e-06L49.6769 8.46386e-06L49.6769 4.00001L51.6769 4.00001L51.6769 8.82149e-06ZM58.3005 4.00001L60.3005 4.00001V1.03712e-05L58.3005 1.00136e-05V4.00001ZM78.1713 1.34706e-05L76.1713 1.3113e-05V4.00001L78.1713 4.00001V1.34706e-05ZM84.7949 4.00001L86.7949 4.00002V1.50204e-05L84.7949 1.46627e-05V4.00001ZM104.666 1.8239e-05L102.666 1.78814e-05V4.00002L104.666 4.00002V1.8239e-05ZM111.289 4.00002L113.289 4.00002V1.96695e-05L111.289 1.93119e-05V4.00002ZM131.16 2.28882e-05L129.16 2.25306e-05V4.00002L131.16 4.00002V2.28882e-05ZM137.784 4.00002L139.784 4.00002V2.44379e-05L137.784 2.40803e-05V4.00002ZM157.654 2.75373e-05L155.654 2.71797e-05V4.00003L157.654 4.00003V2.75373e-05ZM164.278 4.00003L166.278 4.00003V2.90871e-05L164.278 2.87294e-05V4.00003ZM184.149 3.23057e-05L182.149 3.19481e-05V4.00003L184.149 4.00003V3.23057e-05ZM190.772 4.00003L192.772 4.00003V3.37362e-05L190.772 3.33786e-05V4.00003ZM210.643 3.69549e-05L208.643 3.65973e-05V4.00004L210.643 4.00004V3.69549e-05ZM217.267 4.00004L219.267 4.00004L219.267 3.85046e-05L217.267 3.8147e-05L217.267 4.00004ZM237.137 4.1604e-05L235.137 4.12464e-05V4.00004L237.137 4.00004V4.1604e-05ZM243.761 4.00004L245.761 4.00004L245.761 4.31538e-05L243.761 4.27961e-05L243.761 4.00004ZM263.632 4.63724e-05L261.632 4.60148e-05V4.00005L263.632 4.00005V4.63724e-05ZM270.255 4.00005L272.255 4.00005V4.78029e-05L270.255 4.74453e-05V4.00005ZM290.126 5.10216e-05L288.126 5.06639e-05V4.00005L290.126 4.00005V5.10216e-05ZM296.75 4.00005L298.75 4.00005V5.25713e-05L296.75 5.22137e-05V4.00005ZM316.62 5.56707e-05L314.62 5.53131e-05V4.00006L316.62 4.00006V5.56707e-05ZM323.244 4.00006L325.244 4.00006V5.72205e-05L323.244 5.68628e-05V4.00006ZM343.115 6.04391e-05L341.115 6.00815e-05V4.00006L343.115 4.00006V6.04391e-05ZM349.738 4.00006L351.738 4.00006V6.19888e-05L349.738 6.16312e-05V4.00006ZM369.609 6.50883e-05L367.609 6.47306e-05V4.00006L369.609 4.00007V6.50883e-05ZM376.233 4.00007L378.233 4.00007V6.6638e-05L376.233 6.62804e-05V4.00007ZM396.103 6.97374e-05L394.103 6.93798e-05V4.00007L396.103 4.00007V6.97374e-05ZM402.727 4.00007L404.727 4.00007V7.12872e-05L402.727 7.09295e-05V4.00007ZM422.598 7.45058e-05L420.598 7.41482e-05V4.00007L422.598 4.00007V7.45058e-05ZM429.221 4.00008L431.221 4.00008V7.60555e-05L429.221 7.56979e-05V4.00008ZM449.092 7.9155e-05L447.092 7.87973e-05V4.00008L449.092 4.00008V7.9155e-05ZM455.716 4.00008L457.716 4.00008V8.07047e-05L455.716 8.03471e-05V4.00008ZM475.587 8.39233e-05L473.587 8.35657e-05V4.00008L475.587 4.00008V8.39233e-05ZM482.21 4.00009L484.21 4.00009V8.53539e-05L482.21 8.49962e-05V4.00009ZM502.081 8.85725e-05L500.081 8.82149e-05V4.00009L502.081 4.00009V8.85725e-05ZM508.704 4.00009L510.704 4.00009V9.01222e-05L508.704 8.97646e-05V4.00009ZM528.575 9.32217e-05L526.575 9.2864e-05V4.00009L528.575 4.00009V9.32217e-05ZM535.199 4.00009L537.199 4.00009V9.47714e-05L535.199 9.44138e-05V4.00009ZM555.07 9.799e-05L553.07 9.76324e-05V4.0001L555.07 4.0001V9.799e-05ZM561.693 4.0001L563.693 4.0001V9.94205e-05L561.693 9.90629e-05V4.0001ZM581.564 0.000102639L579.564 0.000102282V4.0001L581.564 4.0001V0.000102639ZM588.188 4.0001L590.188 4.0001V0.000104189L588.188 0.000103831V4.0001ZM608.058 0.000107288L606.058 0.000106931V4.00011L608.058 4.00011V0.000107288ZM614.682 4.00011L616.682 4.00011V0.000108838L614.682 0.00010848V4.00011ZM634.553 0.000112057L632.553 0.000111699V4.00011L634.553 4.00011V0.000112057ZM641.176 4.00011L643.176 4.00011V0.000113487L641.176 0.00011313V4.00011ZM661.047 0.000116706L659.047 0.000116348V4.00012L661.047 4.00012V0.000116706ZM667.671 4.00012L669.671 4.00012V0.000118256L667.671 0.000117898V4.00012ZM687.542 0.000121355L685.542 0.000120997V4.00012L687.542 4.00012V0.000121355ZM694.165 4.00012L696.165 4.00012V0.000122905L694.165 0.000122547V4.00012ZM714.036 0.000126123L712.036 0.000125766V4.00013L714.036 4.00013V0.000126123ZM720.66 4.00013L722.66 4.00013V0.000127673L720.66 0.000127316V4.00013ZM740.53 0.000130773L738.53 0.000130415V4.00013L740.53 4.00013V0.000130773ZM2 4L5.31179 4L5.31179 5.96046e-07L2 0L2 4ZM25.1826 4L31.8061 4.00001L31.8061 5.24521e-06L25.1826 4.05312e-06V4ZM51.6769 4.00001L58.3005 4.00001V1.00136e-05L51.6769 8.82149e-06L51.6769 4.00001ZM78.1713 4.00001L84.7949 4.00001V1.46627e-05L78.1713 1.34706e-05V4.00001ZM104.666 4.00002L111.289 4.00002V1.93119e-05L104.666 1.8239e-05V4.00002ZM131.16 4.00002L137.784 4.00002V2.40803e-05L131.16 2.28882e-05V4.00002ZM157.654 4.00003L164.278 4.00003V2.87294e-05L157.654 2.75373e-05V4.00003ZM184.149 4.00003L190.772 4.00003V3.33786e-05L184.149 3.23057e-05V4.00003ZM210.643 4.00004L217.267 4.00004L217.267 3.8147e-05L210.643 3.69549e-05V4.00004ZM237.137 4.00004L243.761 4.00004L243.761 4.27961e-05L237.137 4.1604e-05V4.00004ZM263.632 4.00005L270.255 4.00005V4.74453e-05L263.632 4.63724e-05V4.00005ZM290.126 4.00005L296.75 4.00005V5.22137e-05L290.126 5.10216e-05V4.00005ZM316.62 4.00006L323.244 4.00006V5.68628e-05L316.62 5.56707e-05V4.00006ZM343.115 4.00006L349.738 4.00006V6.16312e-05L343.115 6.04391e-05V4.00006ZM369.609 4.00007L376.233 4.00007V6.62804e-05L369.609 6.50883e-05V4.00007ZM396.103 4.00007L402.727 4.00007V7.09295e-05L396.103 6.97374e-05V4.00007ZM422.598 4.00007L429.221 4.00008V7.56979e-05L422.598 7.45058e-05V4.00007ZM449.092 4.00008L455.716 4.00008V8.03471e-05L449.092 7.9155e-05V4.00008ZM475.587 4.00008L482.21 4.00009V8.49962e-05L475.587 8.39233e-05V4.00008ZM502.081 4.00009L508.704 4.00009V8.97646e-05L502.081 8.85725e-05V4.00009ZM528.575 4.00009L535.199 4.00009V9.44138e-05L528.575 9.32217e-05V4.00009ZM555.07 4.0001L561.693 4.0001V9.90629e-05L555.07 9.799e-05V4.0001ZM581.564 4.0001L588.188 4.0001V0.000103831L581.564 0.000102639V4.0001ZM608.058 4.00011L614.682 4.00011V0.00010848L608.058 0.000107288V4.00011ZM634.553 4.00011L641.176 4.00011V0.00011313L634.553 0.000112057V4.00011ZM661.047 4.00012L667.671 4.00012V0.000117898L661.047 0.000116706V4.00012ZM687.542 4.00012L694.165 4.00012V0.000122547L687.542 0.000121355V4.00012ZM714.036 4.00013L720.66 4.00013V0.000127316L714.036 0.000126123V4.00013ZM740.53 4.00013L743.842 4.00013V0.000131369L740.53 0.000130773V4.00013Z" fill="#FFE920"></path> </svg> 