<?xml version="1.0" encoding="UTF-8"?> <svg xmlns="http://www.w3.org/2000/svg" width="40" height="40" viewBox="0 0 40 40" fill="none"> <path d="M18.356 1.24376C18.797 -0.414591 21.203 -0.414587 21.644 1.24377L24.979 13.7838C25.1315 14.3571 25.5842 14.8077 26.1673 14.9666L38.757 18.3984C40.4143 18.8502 40.4143 21.1498 38.757 21.6016L26.1673 25.0334C25.5842 25.1923 25.1315 25.6429 24.979 26.2162L21.644 38.7562C21.203 40.4146 18.797 40.4146 18.356 38.7562L15.021 26.2162C14.8685 25.6429 14.4159 25.1923 13.8328 25.0334L1.24297 21.6016C-0.414323 21.1498 -0.414325 18.8502 1.24297 18.3984L13.8328 14.9666C14.4159 14.8077 14.8685 14.3571 15.021 13.7838L18.356 1.24376Z" fill="#FF1DC0"></path> </svg> 