<?xml version="1.0" encoding="UTF-8"?> <svg xmlns="http://www.w3.org/2000/svg" width="300" height="293" viewBox="0 0 300 293" fill="none"> <path d="M291.48 8.52035C288.518 5.56566 284.956 3.28249 281.035 1.82575C277.113 0.369006 272.924 -0.227228 268.752 0.0774946C220.039 3.72434 174.277 24.8225 139.869 59.4976L135.347 64.0992H76.367C75.5696 64.0998 74.7802 64.2594 74.0451 64.5685C73.31 64.8777 72.6438 65.3303 72.0856 65.8998L9.54441 129.921C8.71732 130.765 8.15767 131.834 7.93563 132.995C7.71358 134.155 7.839 135.356 8.29618 136.445C8.75335 137.535 9.52195 138.465 10.5056 139.12C11.4893 139.774 12.6443 140.124 13.8259 140.125H71.3653L86.7706 155.53C63.3975 156.388 41.2371 166.151 24.8296 182.819C-24.187 232.436 14.4261 289.055 14.8262 289.616C15.5575 290.663 16.6041 291.45 17.8136 291.862C19.0232 292.274 20.3326 292.289 21.5513 291.905C22.7699 291.521 23.8343 290.758 24.5894 289.727C25.3446 288.697 25.7511 287.452 25.7499 286.174C25.7499 266.928 43.796 248.682 62.8425 248.682C71.9869 248.735 80.7371 252.413 87.1732 258.909C93.6094 265.405 97.206 274.189 97.1741 283.333C97.1927 284.418 97.5051 285.478 98.078 286.399C98.651 287.321 99.4629 288.07 100.428 288.566C101.392 289.063 102.474 289.289 103.557 289.22C104.639 289.151 105.683 288.79 106.577 288.175C118.112 279.223 127.462 267.768 133.923 254.674C140.383 241.58 143.784 227.19 143.87 212.589L159.875 228.595V286.174C159.876 287.361 160.229 288.52 160.889 289.506C161.548 290.492 162.485 291.261 163.581 291.715C164.677 292.168 165.883 292.287 167.047 292.056C168.21 291.825 169.279 291.254 170.119 290.416L234.14 226.394C235.247 225.289 235.879 223.796 235.901 222.233V164.653L240.503 160.132C275.178 125.724 296.276 79.9612 299.923 31.2481C300.227 27.0759 299.631 22.8869 298.174 18.9655C296.718 15.044 294.435 11.4817 291.48 8.52035ZM78.8879 76.1032H123.343L71.3253 128.121H28.0707L78.8879 76.1032ZM107.618 271.489C105.037 261.558 99.2404 252.76 91.1331 246.47C83.0257 240.179 73.0639 236.75 62.8024 236.718C43.1158 236.718 24.7896 250.562 17.267 268.728C10.2647 251.243 4.62275 220.312 33.2724 191.382C41.7733 182.737 52.1369 176.149 63.5723 172.12C75.0076 168.091 87.2123 166.728 99.2548 168.134L131.266 200.145C132.886 213.048 131.603 226.149 127.512 238.492C123.42 250.836 116.623 262.109 107.618 271.489ZM223.897 219.752L171.879 271.769V228.675L223.897 176.657V219.752ZM231.9 151.729L225.658 157.971L225.458 158.171L165.877 217.671L82.3291 134.123L141.989 74.4627L142.189 74.2626L148.431 68.1005C180.762 35.4562 223.78 15.5664 269.592 12.0816C272.054 11.8608 274.535 12.1833 276.859 13.0262C279.182 13.8691 281.293 15.2119 283.04 16.9598C284.788 18.7077 286.131 20.818 286.974 23.1417C287.817 25.4654 288.139 27.9458 287.919 30.4078C284.434 76.2199 264.544 119.239 231.9 151.569V151.729Z" fill="#382459"></path> </svg> 