<?xml version="1.0" encoding="UTF-8"?> <svg xmlns="http://www.w3.org/2000/svg" width="188" height="44" viewBox="0 0 188 44" fill="none"> <path d="M21.7947 17.2546L18.9664 9.4986L16.1381 17.2546H21.7947Z" fill="#382459"></path> <path d="M59.564 20.3649C60.3997 21.198 61.4305 21.6146 62.6564 21.6146C63.8822 21.6146 64.913 21.198 65.7488 20.3649C66.5845 19.5318 67.0024 18.4858 67.0024 17.2268C67.0024 15.9679 66.5845 14.9219 65.7488 14.0888C64.913 13.2557 63.8822 12.8391 62.6564 12.8391C61.4305 12.8391 60.3997 13.2557 59.564 14.0888C58.7282 14.9219 58.3103 15.9679 58.3103 17.2268C58.3103 18.4858 58.7282 19.5318 59.564 20.3649Z" fill="#382459"></path> <path d="M79.4771 21.6701C78.2142 21.6701 77.1647 21.2535 76.329 20.4204C75.4932 19.5688 75.0752 18.5043 75.0752 17.2268C75.0752 15.9494 75.4932 14.8941 76.329 14.061C77.1647 13.2094 78.2142 12.7836 79.4771 12.7836C80.7401 12.7836 81.7895 13.2094 82.6253 14.061C83.461 14.8941 83.8789 15.9494 83.8789 17.2268C83.8789 18.5043 83.461 19.5688 82.6253 20.4204C81.7895 21.2535 80.7401 21.6701 79.4771 21.6701Z" fill="#382459"></path> <path d="M169.943 21.6701C168.68 21.6701 167.631 21.2535 166.795 20.4204C165.959 19.5688 165.542 18.5043 165.542 17.2268C165.542 15.9494 165.959 14.8941 166.795 14.061C167.631 13.2094 168.68 12.7836 169.943 12.7836C171.206 12.7836 172.256 13.2094 173.091 14.061C173.927 14.8941 174.345 15.9494 174.345 17.2268C174.345 18.5043 173.927 19.5688 173.091 20.4204C172.256 21.2535 171.206 21.6701 169.943 21.6701Z" fill="#382459"></path> <path fill-rule="evenodd" clip-rule="evenodd" d="M0 0.126465H188V34.328H27.9833L19.0809 43.1265L10.1786 34.328H0V0.126465ZM24.497 24.1694L22.7929 20.2538H15.1398L13.4647 24.1694H9.98231L17.3027 5.7167H20.6301L27.9515 24.1694H24.497ZM62.6564 24.5305C60.6133 24.5305 58.8768 23.8269 57.4467 22.4199C56.0166 21.0129 55.3015 19.2818 55.3015 17.2268C55.3015 15.1718 56.0166 13.4408 57.4467 12.0338C58.8768 10.6267 60.6133 9.9232 62.6564 9.9232C64.7179 9.9232 66.4545 10.6267 67.8661 12.0338C69.2962 13.4408 70.0112 15.1718 70.0112 17.2268C70.0112 19.2818 69.2962 21.0129 67.8661 22.4199C66.4545 23.8269 64.7179 24.5305 62.6564 24.5305ZM41.7473 24.1694V10.2842H31.0772V18.1988C31.0772 19.4577 30.8636 20.3371 30.4364 20.837C30.0093 21.3369 29.3685 21.5127 28.5142 21.3646V24.1694C30.2971 24.3361 31.6715 23.9565 32.6373 23.0309C33.6031 22.1052 34.086 20.5408 34.086 18.3377V13.1723H38.7385V24.1694H41.7473ZM54.5863 13.1723V10.2842H45.2534V24.1694H48.2623V13.1723H54.5863ZM84.854 12.0615C83.4982 10.636 81.8637 9.9232 79.9507 9.9232C77.8334 9.9232 76.2082 10.71 75.0752 12.2837V10.2842H72.0664V28.737H75.0752V22.1977C76.2082 23.7529 77.8334 24.5305 79.9507 24.5305C81.8637 24.5305 83.4982 23.8269 84.854 22.4199C86.2098 21.0129 86.8878 19.2818 86.8878 17.2268C86.8878 15.1903 86.2098 13.4686 84.854 12.0615ZM99.0345 10.2842H101.347V24.1694H98.3938V15.3384L91.2616 24.1694H88.9492V10.2842H91.9024V19.0875L99.0345 10.2842ZM115.48 13.1723V10.2842H103.361V13.1723H107.93V24.1694H110.939V13.1723H115.48ZM131.724 10.2842V24.1694H128.799V15.033L124.787 21.3924H124.425L120.441 15.0607V24.1694H117.516V10.2842H120.581L124.62 16.6992L128.66 10.2842H131.724ZM147.598 10.2842H145.285L138.153 19.0875V10.2842H135.2V24.1694H137.513L144.645 15.3384V24.1694H147.598V10.2842ZM163.07 24.1694H159.476L153.765 17.7545V24.1694H150.756V10.2842H153.765V16.4215L159.169 10.2842H162.847L156.718 17.088L163.07 24.1694ZM177.354 10.2842H174.345V12.2559C173.212 10.7008 171.587 9.9232 169.47 9.9232C167.557 9.9232 165.922 10.6267 164.566 12.0338C163.211 13.4408 162.533 15.1718 162.533 17.2268C162.533 19.2633 163.211 20.9944 164.566 22.4199C165.922 23.8269 167.557 24.5305 169.47 24.5305C171.587 24.5305 173.212 23.7436 174.345 22.17V24.1694H177.354V10.2842Z" fill="#382459"></path> </svg> 