<?xml version="1.0" encoding="UTF-8"?> <svg xmlns="http://www.w3.org/2000/svg" width="341" height="366" viewBox="0 0 341 366" fill="none"> <path d="M338.328 110.672L173.835 1.00946C171.816 -0.336486 169.188 -0.336486 167.169 1.00946L2.67586 110.672C1.00545 111.785 0 113.664 0 115.671C0 117.678 1.00145 119.557 2.67586 120.67L27.6599 137.326V225.105C27.6599 227.152 28.7014 229.059 30.4239 230.164L168.219 318.504C169.208 319.137 170.334 319.453 171.463 319.453C172.645 319.453 173.831 319.105 174.848 318.408L246.74 269.361V303.562L219.957 357.127C219.028 358.99 219.128 361.205 220.218 362.976C221.311 364.742 223.25 365.824 225.329 365.824H280.164C282.247 365.824 284.182 364.742 285.276 362.976C286.365 361.205 286.469 358.99 285.536 357.127L258.753 303.562V261.161L304.327 230.068C305.966 228.95 306.947 227.092 306.947 225.105V141.588L338.324 120.67C339.995 119.557 341 117.678 341 115.671C341 113.664 339.999 111.785 338.328 110.672ZM235.055 353.807L252.749 318.42L270.442 353.807H235.055ZM171.359 306.242L39.6773 221.82V145.338L167.169 230.336C168.179 231.009 169.34 231.346 170.502 231.346C171.664 231.346 172.825 231.009 173.835 230.336L246.74 181.73V254.812L171.359 306.242ZM294.934 221.932L258.757 246.616V173.719L294.934 149.6V221.932ZM298.855 132.543C297.97 132.872 297.189 133.397 296.556 134.078L252.749 163.284L173.835 110.672C171.067 108.829 167.342 109.578 165.503 112.338C163.664 115.098 164.409 118.832 167.169 120.67L241.917 170.502L170.502 218.115L16.8403 115.671L170.502 13.2311L324.164 115.671L298.855 132.543Z" fill="#382459"></path> </svg> 