<?xml version="1.0" encoding="UTF-8"?> <svg xmlns="http://www.w3.org/2000/svg" width="140" height="20" viewBox="0 0 140 20" fill="none"> <path d="M6.32832 6.94106L5.87283 5.96934H2.71475L2.07706 7.36618C1.8645 7.85204 2.28962 8.12534 2.59328 8.21643V8.36826H0.346191V8.21643C0.58912 8.12534 0.98388 7.94314 1.31791 7.18399L3.86866 1.65735C3.8383 1.44479 3.41317 1.29296 3.29171 1.29296V1.1715H4.90111L7.66443 7.27508C7.96809 7.94314 8.39321 8.12534 8.63614 8.21643V8.36826H5.93356V8.21643C6.17649 8.12534 6.66235 7.85204 6.48015 7.36618C6.44978 7.21435 6.38905 7.09289 6.32832 6.94106ZM3.01841 5.30129H5.56916L4.29379 2.4165L3.01841 5.30129ZM9.57749 2.08248H9.63822C9.69896 2.23431 9.85079 2.23431 9.97225 2.23431H14.3753V2.81126L10.4581 7.82167H13.5251C13.8895 7.82167 14.2235 7.51801 14.4361 6.97142H14.5272L14.2842 8.36826H9.18273V7.85204L13.1 2.81126H10.1544C9.91152 2.81126 9.63822 3.20602 9.54713 3.57042H9.45603L9.57749 2.08248ZM22.1794 3.11493C22.1794 2.62907 22.0276 2.47724 21.7239 2.35577V2.23431H25.0035C26.3092 2.23431 26.9773 2.9631 26.9773 3.90445C26.9773 4.8458 26.3092 5.57458 25.0035 5.57458L26.704 7.60911C27.0684 8.00387 27.3113 8.18607 27.4935 8.2468V8.36826H26.0663L23.4244 5.17982V5.02799H24.8517C25.5501 5.02799 25.8537 4.45104 25.8537 3.90445C25.8537 3.32749 25.5197 2.7809 24.8517 2.7809H23.4244C23.2422 2.7809 23.1208 2.7809 23.1208 3.05419V7.48765C23.1208 7.94314 23.2726 8.09497 23.5763 8.21643V8.3379H21.6936V8.21643C21.9972 8.09497 22.1491 7.94314 22.1491 7.48765V3.11493H22.1794ZM28.4349 8.3379V8.21643C28.7385 8.09497 28.8903 7.94314 28.8903 7.48765V3.08456C28.8903 2.5987 28.7385 2.44687 28.4349 2.32541V2.20394H31.927C32.7468 2.20394 33.8097 2.44687 33.8097 3.72225C33.8097 4.26884 33.5667 4.6636 33.2631 4.96726C33.7793 5.17982 34.2651 5.72641 34.2651 6.5463C34.2651 7.88241 33.0505 8.3379 32.1395 8.3379H28.4349ZM29.8621 2.7809V4.81543H31.8359C32.261 4.81543 32.8379 4.6636 32.8379 3.78298C32.8379 2.90236 32.261 2.7809 31.8055 2.7809H29.8621ZM29.8621 7.63948C29.8621 7.73058 29.9228 7.79131 29.9835 7.79131H32.0788C32.8076 7.79131 33.1416 7.18399 33.1416 6.5463C33.1416 5.93898 32.8076 5.33165 32.2003 5.33165H29.8621V7.63948ZM39.7007 7.15362L39.3363 6.30337H36.6641L36.1175 7.48765C35.9353 7.91277 36.2997 8.12534 36.5426 8.21643V8.3379H34.6295V8.21643C34.8421 8.1557 35.1761 8.00387 35.4798 7.33582L37.6358 2.62907C37.6054 2.44687 37.241 2.32541 37.1499 2.32541V2.20394H38.5164L40.885 7.39655C41.1583 7.97351 41.4923 8.12534 41.7048 8.21643V8.3379H39.4274V8.21643C39.64 8.12534 40.0347 7.91277 39.8829 7.48765C39.8222 7.39655 39.7614 7.27508 39.7007 7.15362ZM36.907 5.75678H39.0934L38.0305 3.29712L36.907 5.75678ZM44.6504 5.57458V7.63948C44.6807 7.97351 44.8326 8.12534 45.1059 8.21643V8.3379H43.1928V8.21643C43.4661 8.12534 43.6483 8.00387 43.6786 7.63948V5.81751L41.6138 2.93273C41.4316 2.6898 41.2494 2.41651 40.9153 2.32541V2.20394H42.9195V2.32541C42.7373 2.38614 42.4944 2.5076 42.7069 2.81126L44.286 5.02799L45.9865 2.81126C46.199 2.53797 45.9865 2.38614 45.7435 2.32541V2.20394H47.4137V2.32541C47.2011 2.35578 47.0493 2.47724 46.8975 2.65943L44.6504 5.57458ZM50.8451 7.94314C51.6042 7.94314 52.5152 7.60911 52.9403 6.5463H53.0314L52.91 7.79131C52.2115 8.21644 51.5131 8.45936 50.6932 8.45936C48.4158 8.45936 47.2922 6.91069 47.2922 5.24055C47.2922 3.63115 48.4158 2.02175 50.6932 2.02175C51.422 2.02175 52.1508 2.20395 52.7581 2.47724C52.7885 2.47724 52.8189 2.44687 52.8492 2.4165H52.91L52.7885 3.78298H52.6974C52.4545 2.96309 51.6346 2.53797 50.8147 2.53797C49.6 2.53797 48.355 3.41859 48.355 5.17982C48.3854 7.09289 49.6304 7.94314 50.8451 7.94314ZM58.5277 7.15362L58.1633 6.30337H55.4911L54.9445 7.48765C54.7623 7.91277 55.1267 8.12534 55.3696 8.21643V8.3379H53.4565V8.21643C53.6691 8.1557 54.0031 8.00387 54.3068 7.33582L56.4628 2.62907C56.4324 2.44687 56.068 2.32541 55.9769 2.32541V2.20394H57.3738L59.7423 7.39655C60.0156 7.97351 60.3497 8.12534 60.5622 8.21643V8.3379H58.2544V8.21643C58.4669 8.12534 58.8617 7.91277 58.7099 7.48765C58.6188 7.39655 58.5581 7.27508 58.5277 7.15362ZM55.7036 5.75678H57.89L56.8272 3.29712L55.7036 5.75678ZM67.0606 8.3379H66.3621L62.1109 3.41859V7.54838C62.1109 7.94314 62.2931 8.12534 62.5664 8.21643V8.3379H60.9873V8.21643C61.291 8.12534 61.4428 7.94314 61.4428 7.54838V2.9631C61.4125 2.5987 61.2606 2.44687 60.9873 2.32541V2.20394H62.4145L66.3621 6.75886V2.99346C66.3621 2.56834 66.1799 2.44687 65.9066 2.32541V2.20394H67.4553V2.32541C67.1517 2.44687 66.9998 2.5987 66.9998 2.99346V8.3379H67.0606ZM71.6155 2.17358C71.6155 1.59662 71.4333 1.41442 71.0689 1.29296V1.1715H74.9254C76.4741 1.1715 77.2332 2.02175 77.2332 3.11493C77.2332 4.20811 76.4437 5.05836 74.895 5.05836L76.8992 7.45728C77.3243 7.94314 77.628 8.12534 77.8405 8.21643V8.36826H76.1704L73.0731 4.63323V4.4814H74.7736C75.5934 4.4814 75.9578 3.81335 75.9578 3.14529C75.9578 2.47724 75.5631 1.83955 74.7736 1.83955H73.1034C72.8909 1.83955 72.7694 1.83955 72.7694 2.17358V7.39655C72.7694 7.94314 72.9516 8.12534 73.316 8.2468V8.39863H71.0993V8.2468C71.4637 8.12534 71.6459 7.94314 71.6459 7.39655V2.17358H71.6155ZM80.3306 2.7809V4.93689H82.2436C82.4866 4.93689 82.5777 4.6636 82.6384 4.29921H82.7295L82.608 6.06044H82.5473C82.5169 5.78714 82.4562 5.48348 82.274 5.48348H80.3609V7.63948C80.3609 7.76094 80.4217 7.82167 80.4824 7.82167H82.8813C83.3368 7.82167 83.6101 7.33581 83.7012 6.97142H83.7923L83.519 8.36826H78.9034V8.2468C79.207 8.12534 79.3588 7.9735 79.3588 7.51801V3.11493C79.3588 2.62907 79.207 2.47724 78.9034 2.35577V2.23431H83.3975C83.4583 2.23431 83.519 2.20395 83.5797 2.17358H83.6405L83.519 3.54005H83.4583C83.4279 3.29713 83.3672 2.7809 83.1242 2.7809H80.3306ZM84.6425 6.5463H84.7336C85.0069 7.70021 86.1609 7.94314 86.9504 7.94314C87.7703 7.94314 88.7116 7.57874 88.7116 6.75886C88.7116 6.06044 87.9525 5.81751 87.1326 5.60495C86.0394 5.33165 84.8247 4.99762 84.8247 3.78298C84.8247 2.5987 86.0698 2.05211 87.3148 2.05211C87.9525 2.05211 88.5598 2.17358 88.9545 2.44687C88.9849 2.41651 89.0456 2.41651 89.1671 2.38614H89.2582V3.72225H89.1671C89.0456 2.72017 87.831 2.56833 87.2844 2.56833C86.4949 2.56833 85.7661 2.872 85.7661 3.57042C85.7661 4.05628 86.7682 4.32957 87.2237 4.45104C88.3168 4.72433 89.653 5.14946 89.653 6.60703C89.653 8.03424 88.1954 8.52009 86.8289 8.48973C85.8876 8.45936 85.0677 8.1557 84.6425 7.76094V6.5463ZM91.1409 3.11493C91.1409 2.62907 90.9891 2.47724 90.6854 2.35577V2.23431H93.9649C95.3011 2.23431 95.9387 2.9631 95.9387 3.90445C95.9387 4.81543 95.2707 5.57458 93.9649 5.57458H92.1126V7.51801C92.1126 7.9735 92.2645 8.12534 92.5681 8.2468V8.36826H90.6854V8.2468C90.9891 8.12534 91.1409 7.9735 91.1409 7.51801V3.11493ZM92.3859 2.75053C92.2037 2.75053 92.0823 2.7809 92.0823 3.05419V5.02799H93.7828C94.4812 5.02799 94.7848 4.45104 94.7848 3.90445C94.7848 3.32749 94.4812 2.7809 93.7828 2.7809H92.3859V2.75053ZM102.225 5.39238C102.225 7.48765 100.949 8.52009 99.6738 8.52009C98.368 8.52009 97.0623 7.45728 97.0623 5.36202V3.11493C97.0623 2.62907 96.9105 2.47724 96.6068 2.35577V2.23431H98.5502V2.35577C98.2769 2.47724 98.0947 2.62907 98.0947 3.02383V5.24055C98.0947 7.03215 98.9754 7.94314 99.8863 7.94314C100.767 7.94314 101.617 7.09289 101.617 5.42275V3.11493C101.617 2.62907 101.465 2.47724 101.162 2.35577V2.23431H102.71V2.35577C102.407 2.47724 102.255 2.62907 102.255 3.11493V5.39238H102.225ZM103.621 8.3379V8.21643C103.925 8.09497 104.077 7.94314 104.077 7.48765V3.08456C104.077 2.5987 103.925 2.44687 103.621 2.32541V2.20394H107.113C107.933 2.20394 108.996 2.44687 108.996 3.72225C108.996 4.26884 108.753 4.6636 108.419 4.96726C108.935 5.17982 109.421 5.72641 109.421 6.5463C109.421 7.88241 108.207 8.3379 107.296 8.3379H103.621ZM105.079 2.7809V4.81543H107.022C107.448 4.81543 108.024 4.6636 108.024 3.78298C108.024 2.90236 107.448 2.7809 106.992 2.7809H105.079ZM105.079 7.63948C105.079 7.73058 105.14 7.79131 105.2 7.79131H107.296C108.024 7.79131 108.358 7.18399 108.358 6.5463C108.358 5.93898 108.055 5.33165 107.387 5.33165H105.079V7.63948ZM114.978 8.3379H110.484V8.21643C110.757 8.12534 110.94 7.97351 110.94 7.54838V3.08456C110.94 2.5987 110.788 2.44687 110.484 2.32541V2.20394H112.367V2.32541C112.063 2.44687 111.911 2.5987 111.911 3.08456V7.51801C111.911 7.73058 112.002 7.79131 112.124 7.79131H114.25C114.614 7.79131 114.978 7.45728 115.16 6.94106H115.252L114.978 8.3379ZM117.893 2.23431V2.35577C117.59 2.47724 117.438 2.62907 117.438 3.11493V7.60911C117.438 8.03424 117.62 8.1557 117.893 8.2468V8.36826H116.011V8.2468C116.284 8.1557 116.466 8.03424 116.466 7.60911V3.11493C116.466 2.62907 116.314 2.47724 116.011 2.35577V2.23431H117.893ZM116.831 0.655273C117.074 0.655273 117.316 0.837466 117.316 1.20186C117.316 1.56625 117.074 1.74845 116.861 1.74845C116.618 1.74845 116.406 1.53589 116.406 1.20186C116.375 0.837466 116.588 0.655273 116.831 0.655273ZM120.96 2.23431V2.35577C120.657 2.47724 120.475 2.62907 120.475 3.11493V5.57458L122.904 2.872C122.934 2.84163 122.934 2.84163 122.934 2.84163C123.147 2.62907 123.025 2.38614 122.722 2.35577V2.23431H124.361V2.35577C124.027 2.5076 123.724 2.81127 123.45 3.08456L121.78 4.90653L123.906 7.57874C124.27 8.0646 124.544 8.18607 124.695 8.2468V8.36826H123.208L121.082 5.66568L120.444 6.39447V7.57874C120.444 8.00387 120.626 8.1557 120.93 8.2468V8.36826H119.047V8.2468C119.321 8.1557 119.503 8.00387 119.503 7.57874V3.11493C119.503 2.62907 119.351 2.47724 119.047 2.35577V2.23431H120.96ZM129.736 7.15362L129.372 6.30337H126.669L126.123 7.48765C125.94 7.91277 126.305 8.12534 126.548 8.21643V8.3379H124.635V8.21643C124.847 8.1557 125.181 8.00387 125.485 7.33582L127.641 2.62907C127.611 2.44687 127.246 2.32541 127.155 2.32541V2.20394H128.552L130.921 7.39655C131.194 7.97351 131.558 8.12534 131.74 8.21643V8.3379H129.463V8.21643C129.676 8.12534 130.07 7.91277 129.918 7.48765C129.827 7.39655 129.797 7.27508 129.736 7.15362ZM126.912 5.75678H129.099L128.036 3.29712L126.912 5.75678ZM132.074 6.5463H132.166C132.439 7.70021 133.593 7.94314 134.382 7.94314C135.202 7.94314 136.143 7.57874 136.143 6.75886C136.143 6.06044 135.415 5.81751 134.564 5.60495C133.471 5.33165 132.226 4.99762 132.226 3.78298C132.226 2.5987 133.471 2.05211 134.716 2.05211C135.354 2.05211 135.961 2.17358 136.356 2.44687C136.386 2.41651 136.447 2.41651 136.569 2.38614H136.66V3.72225H136.569C136.447 2.72017 135.233 2.56833 134.686 2.56833C133.896 2.56833 133.168 2.872 133.168 3.57042C133.168 4.05628 134.17 4.32957 134.625 4.45104C135.749 4.72433 137.054 5.14946 137.054 6.60703C137.054 8.03424 135.597 8.52009 134.23 8.48973C133.289 8.45936 132.469 8.1557 132.044 7.76094L132.074 6.5463ZM140 2.23431V2.35577C139.696 2.47724 139.544 2.62907 139.544 3.11493V7.60911C139.544 8.03424 139.727 8.1557 140 8.2468V8.36826H138.117V8.2468C138.391 8.1557 138.573 8.03424 138.573 7.60911V3.11493C138.573 2.62907 138.421 2.47724 138.117 2.35577V2.23431H140ZM17.7156 2.08248C17.0172 2.08248 16.2884 2.29504 15.7114 2.56833C15.6811 2.53797 15.6507 2.53797 15.59 2.5076H15.5293L15.5596 3.87408H15.6507C15.924 2.872 16.8957 2.62907 17.5941 2.62907C18.8088 2.62907 20.0538 3.50969 20.0538 5.27092C20.0538 5.30129 20.0538 5.36202 20.0538 5.39238H16.0758H15.0738C15.0738 5.39238 15.0738 5.51385 15.0738 5.72641V5.90861H15.1041C15.1649 6.60703 15.4989 7.82167 16.8957 8.3379C17.1994 8.42899 17.503 8.45936 17.8067 8.45936C19.5679 8.48973 21.147 7.27509 21.147 5.27092C21.147 3.66152 19.9931 2.08248 17.7156 2.08248ZM17.8067 7.91277C17.5638 7.91277 17.2905 7.88241 17.0476 7.79131C16.9565 7.76094 15.924 7.36618 15.8936 5.87824H16.8957H19.9627C19.7805 7.30545 18.8088 7.91277 17.8067 7.91277ZM30.0139 19.7252V19.8467H27.7972V19.7252C28.1312 19.6037 28.3438 19.4215 28.3438 18.9357V13.3483H26.6433C26.0056 13.3483 25.7626 13.8038 25.6108 14.2593H25.5197L25.6715 12.6499H32.1699L32.3217 14.2593H32.2306C32.0788 13.8038 31.8359 13.3483 31.1982 13.3483H29.4977V18.9357C29.4673 19.4215 29.6799 19.6037 30.0139 19.7252ZM45.8043 13.7431V13.8645C45.5006 13.986 45.3488 14.1378 45.3488 14.6237V19.0875C45.3488 19.4823 45.531 19.6645 45.8043 19.7556V19.877H43.9216V19.7556C44.1949 19.6645 44.3771 19.4823 44.3771 19.0875V17.0226H40.7331V19.0875C40.7331 19.5126 40.9153 19.6645 41.1886 19.7556V19.877H39.3059V19.7556C39.5792 19.6645 39.7614 19.5126 39.7614 19.0875V14.6237C39.7614 14.1378 39.6096 13.986 39.3059 13.8645V13.7431H41.1886V13.8645C40.885 13.986 40.7331 14.1378 40.7331 14.6237V16.476H44.3771V14.6237C44.3771 14.1378 44.2252 13.986 43.9216 13.8645V13.7431H45.8043ZM46.8064 18.0551H46.8975C47.1708 19.209 48.3247 19.4519 49.1142 19.4519C49.9341 19.4519 50.8451 19.0875 50.8451 18.2676C50.8451 17.5692 50.1163 17.3263 49.266 17.1137C48.1728 16.8404 46.9582 16.5367 46.9582 15.2917C46.9582 14.1075 48.2032 13.5609 49.4482 13.5609C50.0859 13.5609 50.6932 13.6823 51.088 13.9556C51.1184 13.9253 51.1791 13.9253 51.3005 13.8949H51.3916V15.231H51.3005C51.2094 14.2289 49.9644 14.0771 49.4178 14.0771C48.6283 14.0771 47.8995 14.3808 47.8995 15.0792C47.8995 15.5954 48.9016 15.8383 49.3571 15.9598C50.4503 16.2635 51.7864 16.6582 51.7864 18.1158C51.7864 19.543 50.3288 20.0288 48.9624 19.9985C48.021 19.9681 47.2011 19.6645 46.776 19.2697L46.8064 18.0551ZM54.7319 13.7431V13.8645C54.4283 13.986 54.2764 14.1378 54.2764 14.6237V19.1179C54.2764 19.543 54.4586 19.6645 54.7319 19.7556V19.877H52.8492V19.7556C53.1225 19.6645 53.3047 19.543 53.3047 19.1179V14.6237C53.3047 14.1378 53.1529 13.986 52.8492 13.8645V13.7431H54.7319ZM53.6691 12.164C53.912 12.164 54.155 12.3766 54.155 12.7106C54.155 13.075 53.912 13.2572 53.6995 13.2572C53.4565 13.2572 53.244 13.075 53.244 12.7106C53.2136 12.3462 53.4565 12.164 53.6691 12.164ZM60.4104 19.8467H55.9162V19.7252C56.1895 19.6341 56.3717 19.4823 56.3717 19.0571V14.5933C56.3717 14.1075 56.2199 13.9556 55.9162 13.8342V13.7127H57.7989V13.8342C57.4952 13.9556 57.3434 14.1075 57.3434 14.5933V19.0268C57.3434 19.2393 57.4345 19.3001 57.556 19.3001H59.6816C60.046 19.3001 60.4104 18.966 60.5926 18.4498H60.6837L60.4104 19.8467ZM70.9778 19.8467H70.1883L65.2082 14.0771V18.9357C65.2082 19.4215 65.4208 19.6037 65.7548 19.7252V19.8467H63.9025V19.7252C64.2365 19.6037 64.4491 19.4215 64.4491 18.9357V13.5609C64.4187 13.1054 64.2365 12.9535 63.9025 12.8017V12.6803H65.5726L70.2186 18.0247V13.5912C70.2186 13.075 70.0061 12.9232 69.6721 12.8017V12.6803H71.494V12.8017C71.16 12.9535 70.9474 13.1054 70.9474 13.5912V19.8467H70.9778ZM77.0814 18.632L76.717 17.7818H74.0448L73.4982 18.9964C73.316 19.4215 73.6804 19.6341 73.9233 19.7252V19.8467H72.0102V19.7252C72.2228 19.6645 72.5568 19.5126 72.8605 18.8446L75.0165 14.1378C74.9861 13.9556 74.6217 13.8342 74.5306 13.8342V13.7127H75.8971L78.2657 18.9053C78.539 19.4823 78.873 19.6341 79.0855 19.7252V19.8467H76.8081V19.7252C77.0207 19.6341 77.4154 19.4215 77.2636 18.9964C77.2029 18.9053 77.1421 18.7838 77.0814 18.632ZM74.2877 17.2655H76.4741L75.3809 14.8059L74.2877 17.2655ZM80.0269 13.5912H80.0876C80.1484 13.7431 80.3002 13.7431 80.4217 13.7431H84.8247V14.32L80.9075 19.3001H83.9745C84.3389 19.3001 84.6729 18.9964 84.8855 18.4498H84.9462L84.7033 19.8163H79.6018V19.3001L83.519 14.2897H80.5735C80.3306 14.2897 80.0573 14.6844 79.9662 15.0488H79.9054L80.0269 13.5912ZM87.8006 13.7431V13.8645C87.497 13.986 87.3451 14.1378 87.3451 14.6237V19.1179C87.3451 19.543 87.5273 19.6645 87.8006 19.7556V19.877H85.9179V19.7556C86.1912 19.6645 86.3734 19.543 86.3734 19.1179V14.6237C86.3734 14.1378 86.2216 13.986 85.9179 13.8645V13.7431H87.8006ZM86.7682 12.164C87.0111 12.164 87.254 12.3766 87.254 12.7106C87.254 13.075 87.0111 13.2572 86.7985 13.2572C86.5556 13.2572 86.3431 13.075 86.3431 12.7106C86.2823 12.3462 86.5253 12.164 86.7682 12.164ZM89.4708 14.5933C89.4708 14.1075 89.3189 13.9556 89.0153 13.8342V13.7127H92.2948C93.6309 13.7127 94.2686 14.4415 94.2686 15.3828C94.2686 16.3242 93.6005 17.053 92.2948 17.053L93.9953 19.0875C94.3597 19.5126 94.633 19.6645 94.7848 19.7252V19.8467H93.3576L90.7158 16.6582V16.5064H92.1733C92.8414 16.5064 93.1754 15.9294 93.1754 15.3828C93.1754 14.8059 92.8414 14.2593 92.1733 14.2593H90.7461C90.5639 14.2593 90.4425 14.2593 90.4425 14.5326V18.9964C90.4425 19.4519 90.5943 19.6341 90.898 19.7252V19.8467H89.0153V19.7252C89.3189 19.6037 89.4708 19.4519 89.4708 18.9964V14.5933ZM100.22 19.8467H95.7262V19.7252C95.9995 19.6341 96.1817 19.4823 96.1817 19.0571V14.5933C96.1817 14.1075 96.0298 13.9556 95.7262 13.8342V13.7127H97.6089V13.8342C97.3052 13.9556 97.1534 14.1075 97.1534 14.5933V19.0268C97.1534 19.2393 97.2445 19.3001 97.366 19.3001H99.4916C99.856 19.3001 100.22 18.966 100.403 18.4498H100.494L100.22 19.8467ZM102.984 13.7431V13.8645C102.68 13.986 102.528 14.1378 102.528 14.6237V19.1179C102.528 19.543 102.71 19.6645 102.984 19.7556V19.877H101.101V19.7556C101.374 19.6645 101.556 19.543 101.556 19.1179V14.6237C101.556 14.1378 101.405 13.986 101.101 13.8645V13.7431H102.984ZM101.921 12.164C102.164 12.164 102.407 12.3766 102.407 12.7106C102.407 13.075 102.164 13.2572 101.951 13.2572C101.708 13.2572 101.465 13.075 101.465 12.7106C101.465 12.3462 101.678 12.164 101.921 12.164ZM107.235 17.0833V19.1482C107.265 19.4823 107.417 19.6341 107.69 19.7252V19.8467H105.777V19.7252C106.051 19.6341 106.202 19.5126 106.263 19.1482V17.3263L104.198 14.4415C104.016 14.1986 103.834 13.9253 103.5 13.8342V13.7127H105.504V13.8342C105.322 13.8949 105.079 14.0164 105.292 14.32L106.871 16.5367L108.571 14.32C108.784 14.0467 108.571 13.8949 108.328 13.8342V13.7127H109.998V13.8342C109.755 13.8645 109.634 13.986 109.512 14.1682L107.235 17.0833ZM112.397 13.7431V13.8645C112.094 13.986 111.942 14.1378 111.942 14.6237V19.1179C111.942 19.543 112.124 19.6645 112.397 19.7556V19.877H110.514V19.7556C110.788 19.6645 110.97 19.543 110.97 19.1179V14.6237C110.97 14.1378 110.818 13.986 110.514 13.8645V13.7431H112.397ZM111.334 12.164C111.577 12.164 111.82 12.3766 111.82 12.7106C111.82 13.075 111.577 13.2572 111.365 13.2572C111.122 13.2572 110.879 13.075 110.879 12.7106C110.879 12.3462 111.091 12.164 111.334 12.164ZM35.2065 13.5305C34.5081 13.5305 33.7793 13.7431 33.2023 14.0164C33.172 13.986 33.1416 13.986 33.1112 13.9556H33.0201L33.0505 15.3221H33.1416C33.4149 14.32 34.3563 14.0771 35.085 14.0771C36.2997 14.0771 37.5447 14.9577 37.5447 16.7189C37.5447 16.7493 37.5447 16.81 37.5447 16.8404H33.5667H32.5646C32.5646 16.8404 32.5646 16.9619 32.5646 17.1441V17.3263C32.6557 18.0247 32.9898 19.2393 34.3866 19.7556C34.6903 19.8467 34.9939 19.877 35.2976 19.877C37.0588 19.9074 38.6379 18.6927 38.6379 16.6886C38.6379 15.1095 37.484 13.5305 35.2065 13.5305ZM35.2976 19.3608C35.0547 19.3608 34.7814 19.3304 34.5384 19.2393C34.4473 19.209 33.4149 18.8142 33.3845 17.3263H34.3866H37.4536C37.2714 18.7535 36.33 19.3608 35.2976 19.3608Z" fill="#382459"></path> </svg> 